<?xml version="1.0" standalone="no"?>
<!DOCTYPE svg PUBLIC "-//W3C//DTD SVG 20010904//EN"
 "http://www.w3.org/TR/2001/REC-SVG-20010904/DTD/svg10.dtd">
<svg version="1.0" xmlns="http://www.w3.org/2000/svg"
 width="700.000000pt" height="700.000000pt" viewBox="0 0 700.000000 700.000000"
 preserveAspectRatio="xMidYMid meet">
<metadata>
Created by potrace 1.11, written by Peter Selinger 2001-2013
</metadata>
<g transform="translate(0.000000,700.000000) scale(0.100000,-0.100000)"
fill="#000000" stroke="none">
<path d="M3387 6774 c-1 -1 -31 -5 -67 -8 -387 -40 -795 -270 -1024 -576 -22
-30 -47 -61 -54 -68 -6 -7 -12 -18 -12 -23 0 -18 -22 -8 -113 55 -297 205
-721 353 -1152 401 -33 4 -73 9 -90 11 -16 3 -119 7 -229 11 l-199 6 6 -194
c4 -107 8 -207 11 -224 2 -16 7 -55 11 -85 4 -30 9 -73 11 -95 22 -179 97
-466 170 -652 74 -189 124 -279 289 -520 8 -11 4 -19 -15 -31 -332 -222 -559
-534 -657 -902 -91 -344 -51 -734 106 -1050 56 -112 72 -138 151 -245 82 -110
187 -216 294 -297 45 -34 80 -66 78 -71 -2 -5 -18 -28 -36 -51 -102 -127 -224
-347 -290 -521 -21 -55 -42 -110 -47 -123 -11 -29 -85 -316 -93 -362 -3 -19
-8 -46 -11 -60 -9 -45 -14 -74 -20 -125 -3 -27 -8 -68 -10 -90 -12 -84 -14
-125 -20 -296 -5 -141 -4 -177 7 -181 17 -7 261 -2 362 6 146 13 296 34 396
56 25 6 55 12 67 15 61 11 263 69 350 100 199 71 461 215 596 328 26 22 49 38
51 36 1 -2 31 -43 65 -92 208 -291 517 -499 876 -590 197 -50 452 -55 660 -12
266 55 551 203 739 383 80 78 194 213 229 274 12 21 24 38 27 38 3 0 23 -16
45 -36 178 -157 568 -340 880 -414 270 -64 504 -92 770 -94 l130 -1 0 135 c-1
131 -12 327 -20 353 -2 6 -7 37 -10 67 -14 115 -22 162 -51 290 -14 58 -27
115 -30 127 -12 60 -91 279 -135 376 -58 130 -161 305 -237 402 l-54 70 28 20
c374 270 598 643 650 1085 9 74 10 258 3 329 -32 283 -130 534 -294 752 -106
142 -249 279 -372 358 -29 18 -53 35 -53 38 0 3 13 22 29 42 81 103 180 279
246 435 39 95 90 239 100 282 2 10 13 55 25 99 58 225 95 509 99 774 l2 144
-203 -6 c-112 -4 -221 -9 -243 -12 -83 -11 -210 -29 -215 -30 -3 -1 -27 -5
-55 -9 -67 -11 -273 -62 -365 -91 -204 -64 -405 -159 -565 -266 -60 -41 -115
-78 -122 -82 -8 -5 -22 7 -40 35 -15 24 -30 45 -33 48 -3 3 -25 30 -50 60
-240 292 -610 492 -995 536 -47 6 -273 12 -278 8z m288 -379 c147 -22 379
-118 496 -207 251 -190 396 -421 458 -725 31 -148 24 -304 -23 -583 -3 -19
-15 -93 -26 -164 -11 -71 -23 -133 -26 -137 -8 -14 12 -18 52 -9 21 5 55 11
74 13 19 3 91 14 160 26 69 12 139 24 155 27 17 2 41 6 55 9 178 34 412 14
590 -50 401 -145 687 -492 754 -915 17 -108 13 -301 -9 -405 -82 -392 -348
-708 -715 -850 -247 -96 -442 -102 -855 -24 -27 5 -66 11 -85 14 -19 2 -44 6
-55 9 -11 2 -41 7 -68 10 -46 6 -47 6 -43 -16 3 -13 15 -84 26 -158 23 -147
28 -174 34 -206 2 -12 7 -43 11 -70 3 -27 10 -76 14 -108 9 -64 7 -223 -4
-296 -51 -358 -277 -677 -605 -853 -88 -47 -235 -100 -311 -113 -24 -3 -55 -8
-69 -11 -14 -2 -72 -5 -130 -7 -314 -10 -614 109 -840 334 -168 167 -289 393
-325 608 -3 17 -8 47 -11 65 -15 85 -5 266 25 447 17 102 33 203 36 225 4 22
8 47 10 55 2 8 7 36 10 61 6 44 5 46 -17 43 -93 -14 -468 -76 -488 -80 -58
-12 -280 -11 -362 2 -492 75 -889 478 -965 979 -22 147 -2 374 47 524 129 393
475 694 890 776 59 11 332 15 385 5 28 -6 120 -21 205 -34 204 -33 218 -35
267 -42 l42 -7 -5 34 c-3 19 -21 126 -40 239 -19 113 -38 225 -42 250 -4 25
-6 115 -6 200 2 179 22 277 93 438 128 295 392 534 698 632 94 30 112 34 198
46 28 3 51 7 53 9 6 5 237 -3 287 -10z m-2675 -215 c113 -19 127 -21 195 -36
332 -73 623 -205 823 -372 l34 -28 -16 -56 c-9 -30 -18 -64 -20 -74 -3 -11 -9
-39 -15 -64 -26 -115 -35 -354 -18 -487 l8 -63 -33 7 c-45 10 -340 10 -408 0
-30 -4 -86 -15 -125 -23 -131 -30 -116 -33 -172 38 -120 150 -230 354 -288
533 -65 200 -107 392 -129 597 l-6 48 58 -6 c31 -3 82 -9 112 -14z m5165 -22
c-7 -67 -15 -118 -31 -208 -9 -47 -18 -96 -20 -110 -8 -43 -54 -212 -76 -275
-70 -206 -188 -421 -312 -569 l-25 -30 -58 14 c-32 7 -60 13 -63 12 -3 0 -14
4 -25 8 -60 23 -378 34 -502 18 l-53 -6 7 51 c4 29 7 120 7 202 -1 154 -16
267 -54 400 l-20 69 38 33 c113 102 344 229 538 296 165 58 486 127 616 134
l37 2 -4 -41z m-339 -4196 c164 -205 290 -482 358 -788 27 -119 33 -154 51
-289 4 -33 9 -67 10 -75 3 -24 -11 -27 -78 -17 -34 5 -73 10 -87 12 -14 1 -52
8 -85 14 -33 6 -73 14 -90 17 -97 17 -316 82 -395 116 -212 91 -380 193 -487
294 l-62 59 24 104 c37 162 47 317 31 505 -4 48 -4 86 1 83 15 -9 158 -20 263
-19 114 1 304 30 391 59 36 13 61 16 74 10 11 -5 48 -43 81 -85z m-4501 72
c66 -20 171 -42 242 -51 75 -9 302 -8 375 1 l57 8 -7 -39 c-9 -51 -9 -354 1
-423 4 -30 17 -93 28 -140 l21 -84 -62 -59 c-127 -118 -347 -244 -560 -320
-102 -37 -356 -103 -430 -112 -25 -2 -56 -7 -69 -10 -20 -4 -125 -17 -141 -17
-22 -1 -28 5 -25 25 2 12 6 45 10 72 3 28 9 66 11 85 43 309 177 680 322 890
64 92 149 190 165 190 7 0 35 -7 62 -16z"/>
<path d="M3325 4744 c-537 -80 -960 -482 -1060 -1010 -19 -98 -26 -300 -13
-379 4 -27 10 -65 13 -82 38 -243 176 -496 370 -681 233 -221 522 -341 839
-345 181 -3 303 16 455 73 631 232 967 909 770 1553 -134 440 -522 783 -976
863 -111 20 -294 24 -398 8z m398 -384 c405 -108 678 -475 662 -890 -3 -95
-29 -230 -54 -285 -5 -11 -19 -42 -32 -70 -72 -160 -218 -310 -390 -403 -127
-68 -277 -102 -429 -97 -127 4 -153 9 -254 41 -288 93 -510 330 -587 625 -29
113 -32 296 -6 419 41 189 168 381 347 522 39 31 194 109 254 128 131 42 353
47 489 10z"/>
</g>
</svg>
