<?xml version="1.0" encoding="utf-8"?>
<!-- Generator: Adobe Illustrator 16.0.0, SVG Export Plug-In . SVG Version: 6.00 Build 0)  -->
<!DOCTYPE svg PUBLIC "-//W3C//DTD SVG 1.1//EN" "http://www.w3.org/Graphics/SVG/1.1/DTD/svg11.dtd">
<svg version="1.1" id="Layer_1" xmlns="http://www.w3.org/2000/svg" xmlns:xlink="http://www.w3.org/1999/xlink" x="0px" y="0px"
	 width="2500px" height="2458px" viewBox="0 0 2500 2458" enable-background="new 0 0 2500 2458" xml:space="preserve">
<g>
	<path fill="#93A39B" d="M0.17,0h2499.66v2458H0.17V0z"/>
	<path fill="#FFFFFF" d="M198.968,195.465h2102.081v2067.07H198.968V195.465z"/>
	<g>
		<path fill="#93A39B" d="M604.237,692.772c0,0,158.046-4.157,288.145-4.157c131.466,0,225.203,30.929,288.136,85.279
			c60.15,51.36,100.712,138.915,100.712,238.585s-30.779,181.226-86.738,238.567c-72.732,73.998-157.487,117.801-302.109,123.858
			c-39.953,1.675-76.931,2.074-76.931,2.074v323.989H604.229L604.237,692.772L604.237,692.772z M815.442,1197.479
			c22.946,2.232,37.328,1.158,71.34,0.749c113.302-1.357,183.217-70.257,183.217-174.451c0-93.604-57.65-170.46-166.419-174.442
			c-43.353-1.583-88.138,0-88.138,0V1197.479z"/>
		<path fill="#93A39B" d="M1361.835,1475.258c42.569,26.122,143.022,65.241,211.496,65.241c69.957,0,98.845-24.654,98.845-63.091
			c0-38.486-22.813-78.914-109.526-108.145c-153.638-52.317-212.972-114.942-211.43-202.597
			c0-141.573,118.634-247.726,302.692-247.726c86.705,0,155.971,28.347,201.564,51.41v169.91
			c-33.496-18.48-130.074-59.742-193.949-59.742c-56.317,0-88.238,23.08-88.238,61.509c0,35.396,28.922,53.859,120.184,86.188
			c141.439,49.227,200.773,121.517,202.273,232.293c0,140.022-107.936,251.366-322.457,244.608
			c-73.623-2.316-155.187-31.421-211.471-62.149L1361.835,1475.258L1361.835,1475.258z"/>
	</g>
</g>
</svg>
