<?xml version="1.0" encoding="utf-8"?>
<!-- Generator: Adobe Illustrator 16.0.0, SVG Export Plug-In . SVG Version: 6.00 Build 0)  -->
<!DOCTYPE svg PUBLIC "-//W3C//DTD SVG 1.1//EN" "http://www.w3.org/Graphics/SVG/1.1/DTD/svg11.dtd">
<svg version="1.1" id="Layer_1" xmlns="http://www.w3.org/2000/svg" xmlns:xlink="http://www.w3.org/1999/xlink" x="0px" y="0px"
	 width="250px" height="250px" viewBox="0 0 250 250" enable-background="new 0 0 250 250" xml:space="preserve">
<g>
	<path fill="#93A39B" d="M165.604,169.285c-8.387,0-19.115-3.738-24.316-6.859l-5.021,20.205c6.858,3.738,17.456,6.34,29.338,6.34
		c25.959,0,39.369-12.436,39.369-29.389c-0.195-13.346-7.43-22.106-24.707-28.006c-11.102-3.934-14.598-6.161-14.598-10.419
		c0-4.633,3.869-7.429,10.729-7.429c7.802,0,15.555,2.991,19.683,5.217l5.007-19.504c-5.575-2.796-15.035-5.202-25.648-5.202
		c-22.465,0-36.947,12.825-36.947,29.713c-0.195,10.792,7.039,21.018,25.846,27.307c10.531,3.56,13.328,5.77,13.328,10.403
		C177.664,166.312,174.104,169.285,165.604,169.285z"/>
	<path fill="#93A39B" d="M73.035,142.368c2.601,0.374,5.965,0.504,9.638,0.504c16.709,0,31.046-4.063,40.636-13.134
		c7.494-7.054,11.557-17.473,11.557-29.712c0-12.256-5.331-22.675-13.393-28.966c-8.323-6.729-20.757-10.029-38.23-10.029
		c-17.262,0-29.518,1.139-38.214,2.601v123.501h28.007L73.035,142.368L73.035,142.368z M73.083,83.511
		c1.983-0.569,5.917-1.139,11.622-1.139c14.157,0,22.106,6.843,22.17,18.336c0,12.84-9.347,20.448-24.382,20.448
		c-4.064,0-6.989-0.178-9.411-0.7V83.511z"/>
	<path fill="#93A39B" d="M0,0v250h250V0H0z M234.536,234.536H15.464V15.464h219.072V234.536z"/>
</g>
</svg>
