<?xml version="1.0" encoding="utf-8"?>
<!-- Generator: Adobe Illustrator 16.0.0, SVG Export Plug-In . SVG Version: 6.00 Build 0)  -->
<!DOCTYPE svg PUBLIC "-//W3C//DTD SVG 1.1//EN" "http://www.w3.org/Graphics/SVG/1.1/DTD/svg11.dtd">
<svg version="1.1" id="Layer_1" xmlns="http://www.w3.org/2000/svg" xmlns:xlink="http://www.w3.org/1999/xlink" x="0px" y="0px"
	 width="250px" height="250px" viewBox="0 0 250 250" enable-background="new 0 0 250 250" xml:space="preserve">
<g>
	<path fill="#93A39B" d="M124.045,177.564c7.789-6.236,13.028-15.208,12.959-26.613c0-16.203-10.594-27.075-25.012-30.971v-0.371
		c14.234-5.239,20.747-15.649,20.747-26.89c0-11.313-6.328-19.915-15.114-24.619c-9.063-5.355-19.75-7.07-37.044-7.07
		c-14.21,0-29.347,1.09-36.765,2.619v123.419c6.327,0.997,16.759,1.901,30.784,1.901C99.59,188.97,114.889,184.913,124.045,177.564z
		 M71.979,82.496c2.434-0.371,5.981-0.741,12.124-0.741c12.866,0,20.121,4.983,20.121,14.488c0,9.343-7.974,15.485-22.926,15.578
		h-9.319V82.496z M71.979,132.105h9.69c14.21,0,25.522,5.076,25.522,17.756c0,13.215-11.312,18.105-24.178,18.105
		c-4.891,0-8.229,0-11.034-0.439V132.105z"/>
	<path fill="#93A39B" d="M150.227,187.625h28.35v-46.178c0-2.271,0.186-4.545,0.534-6.352c1.901-8.787,8.971-14.396,19.474-14.396
		c3.175,0,5.539,0.371,7.602,0.811V94.806c-2.062-0.371-3.338-0.371-5.957-0.371c-8.786,0-19.936,5.632-24.643,18.846h-0.719
		l-0.902-16.853h-24.458c0.372,7.881,0.72,16.667,0.72,30.066V187.625L150.227,187.625z"/>
	<path fill="#93A39B" d="M0,0v250h250V0H0z M234.536,234.536H15.464V15.464h219.072V234.536z"/>
</g>
</svg>
