<?xml version="1.0" encoding="utf-8"?>
<!-- Generator: Adobe Illustrator 16.0.0, SVG Export Plug-In . SVG Version: 6.00 Build 0)  -->
<!DOCTYPE svg PUBLIC "-//W3C//DTD SVG 1.1//EN" "http://www.w3.org/Graphics/SVG/1.1/DTD/svg11.dtd">
<svg version="1.1" id="Layer_1" xmlns="http://www.w3.org/2000/svg" xmlns:xlink="http://www.w3.org/1999/xlink" x="0px" y="0px"
	 width="250px" height="250px" viewBox="0 0 250 250" enable-background="new 0 0 250 250" xml:space="preserve">
<g>
	<path fill="#93A39B" d="M86.806,157.467h35.15l9.499,31.503h29.84L123.209,66.128H86.807L49.204,188.97h28.802L86.806,157.467z
		 M103.711,86.879h0.357c1.807,7.353,13.9,49.765,13.9,49.765H90.777C90.777,136.645,101.886,94.232,103.711,86.879z"/>
	<rect x="172.139" y="99.884" fill="#93A39B" width="27.744" height="89.086"/>
	<path fill="#93A39B" d="M185.842,88.919c9.159,0,14.955-6.226,14.955-13.845c-0.215-8.033-5.796-14.043-14.74-14.043
		s-14.812,6.01-14.615,14.043C171.244,82.693,177.112,88.919,185.842,88.919z"/>
	<path fill="#93A39B" d="M0,0v250h250V0H0z M234.536,234.536H15.464V15.464h219.072V234.536z"/>
</g>
</svg>
