<?xml version="1.0" encoding="utf-8"?>
<!-- Generator: Adobe Illustrator 16.0.0, SVG Export Plug-In . SVG Version: 6.00 Build 0)  -->
<!DOCTYPE svg PUBLIC "-//W3C//DTD SVG 1.1//EN" "http://www.w3.org/Graphics/SVG/1.1/DTD/svg11.dtd">
<svg version="1.1" id="Layer_1" xmlns="http://www.w3.org/2000/svg" xmlns:xlink="http://www.w3.org/1999/xlink" x="0px" y="0px"
	 width="250px" height="250px" viewBox="0 0 250 250" enable-background="new 0 0 250 250" xml:space="preserve">
<g>
	<rect x="60.583" y="67.386" fill="#93A39B" width="27.131" height="119.586"/>
	<path fill="#93A39B" d="M136.742,188.97c11.141,0,21.653-5.011,27.132-14.727h0.407l1.182,12.729h23.953
		c-0.305-5.805-0.712-16.152-0.712-25.929V61.03h-26.969v47.013h-0.325c-3.892-6.03-12.242-9.778-22.916-9.778
		c-20.757,0-39.068,16.866-38.824,46.158C99.67,171.391,116.129,188.97,136.742,188.97z M145.582,118.879
		c8.353,0,14.157,6.049,15.746,13.281c0.245,1.426,0.408,3.422,0.408,4.848v11.305c0,2.301-0.163,4.299-0.715,6.213
		c-1.588,7.639-7.801,12.955-15.602,12.955c-11.223,0-18.455-9.229-18.455-23.934C126.965,129.859,133.32,118.879,145.582,118.879z"
		/>
	<path fill="#93A39B" d="M0,0v250h250V0H0z M234.536,234.536H15.464V15.464h219.072V234.536z"/>
</g>
</svg>
