<?xml version="1.0" encoding="utf-8"?>
<!-- Generator: Adobe Illustrator 16.0.0, SVG Export Plug-In . SVG Version: 6.00 Build 0)  -->
<!DOCTYPE svg PUBLIC "-//W3C//DTD SVG 1.1//EN" "http://www.w3.org/Graphics/SVG/1.1/DTD/svg11.dtd">
<svg version="1.1" id="Layer_1" xmlns="http://www.w3.org/2000/svg" xmlns:xlink="http://www.w3.org/1999/xlink" x="0px" y="0px"
	 width="250px" height="250px" viewBox="0 0 250 250" enable-background="new 0 0 250 250" xml:space="preserve">
<g>
	<polygon fill="#93A39B" points="128.031,165.453 128.031,161.91 84.868,161.91 84.868,61.03 53.407,61.03 53.407,188.97 
		128.031,188.97 	"/>
	<path fill="#93A39B" d="M140.634,188.97h28.351v-46.178c0-2.272,0.186-4.545,0.533-6.352c1.902-8.786,8.971-14.396,19.474-14.396
		c3.175,0,5.539,0.371,7.603,0.811V96.149c-2.063-0.371-3.338-0.371-5.957-0.371c-8.787,0-19.936,5.632-24.644,18.846h-0.718
		l-0.903-16.853h-24.458c0.373,7.881,0.721,16.667,0.721,30.067L140.634,188.97L140.634,188.97z"/>
	<path fill="#93A39B" d="M0,0v250h250V0H0z M234.536,234.536H15.464V15.464h219.072V234.536z"/>
</g>
</svg>
