<?xml version="1.0" encoding="utf-8"?>
<!-- Generator: Adobe Illustrator 16.0.0, SVG Export Plug-In . SVG Version: 6.00 Build 0)  -->
<!DOCTYPE svg PUBLIC "-//W3C//DTD SVG 1.1//EN" "http://www.w3.org/Graphics/SVG/1.1/DTD/svg11.dtd">
<svg version="1.1" id="Layer_1" xmlns="http://www.w3.org/2000/svg" xmlns:xlink="http://www.w3.org/1999/xlink" x="0px" y="0px"
	 width="250px" height="250px" viewBox="0 0 250 250" enable-background="new 0 0 250 250" xml:space="preserve">
<circle fill="#93A39B" cx="495" cy="96.757" r="125.151"/>
<g>
	<path d="M-503.475,131.611c0-28.765,22.498-50.298,53.996-50.298c19.765,0,34.71,8.677,41.299,23.622l-26.034,12.374
		c-3.374-8.196-9.32-11.57-16.874-11.57c-12.373,0-21.372,9.803-21.372,24.103c0,10.126,5.945,16.875,17.034,16.875
		c7.874,0,14.141-3.213,18.801-11.41l22.337,13.5c-8.356,14.141-24.105,22.497-43.228,22.497
		C-485.316,171.304-503.475,155.555-503.475,131.611z"/>
	<path d="M-407.692,131.611c0-28.765,22.337-50.298,53.513-50.298c27.801,0,45.639,15.587,45.639,39.531
		c0,28.925-22.337,50.459-53.513,50.459C-389.854,171.304-407.692,155.555-407.692,131.611z M-339.555,122.452
		c0-10.124-5.946-16.713-16.392-16.713c-12.213,0-20.729,9.803-20.729,24.426c0,10.123,5.945,16.552,16.391,16.552
		C-348.073,146.717-339.555,136.916-339.555,122.452z"/>
</g>
<g>
	<path d="M-503.475,250.254c0-28.766,22.5-50.3,53.994-50.3c19.766,0,34.712,8.678,41.3,23.623l-26.032,12.375
		c-3.376-8.195-9.322-11.571-16.875-11.571c-12.372,0-21.372,9.802-21.372,24.103c0,10.126,5.946,16.874,17.036,16.874
		c7.87,0,14.139-3.211,18.798-11.407l22.34,13.498c-8.358,14.143-24.107,22.497-43.229,22.497
		C-485.316,289.945-503.475,274.196-503.475,250.254z"/>
	<path d="M-407.693,250.254c0-28.766,22.34-50.3,53.515-50.3c27.799,0,45.638,15.588,45.638,39.533
		c0,28.924-22.337,50.458-53.512,50.458C-389.854,289.945-407.693,274.196-407.693,250.254z M-339.554,241.094
		c0-10.124-5.946-16.713-16.395-16.713c-12.211,0-20.727,9.802-20.727,24.425c0,10.126,5.946,16.552,16.39,16.552
		C-348.075,265.357-339.554,255.56-339.554,241.094z"/>
</g>
<text transform="matrix(1 0 0 1 22.8203 412.2793)" font-family="'Montserrat-ExtraBoldItalic'" font-size="75.857">coco.</text>
<g>
	<path d="M99.991-103.653c0-39.85,31.168-69.682,74.803-69.682c27.383,0,48.086,12.021,57.215,32.726l-36.066,17.143
		c-4.675-11.354-12.912-16.029-23.375-16.029c-17.143,0-29.609,13.58-29.609,33.394c0,14.025,8.237,23.376,23.598,23.376
		c10.909,0,19.592-4.452,26.047-15.807l30.945,18.7c-11.576,19.592-33.394,31.168-59.886,31.168
		C125.147-48.665,99.991-70.481,99.991-103.653z"/>
</g>
<g>
	<g id="XMLID_1_">
		<g>
			<path fill="#6E7A74" d="M1060.93,438.35l0.07,4.439H943.36l-0.11-4.24c-2.27-76.069-63.41-137.21-139.49-139.47l-4.229-0.13
				V181.31l4.43,0.069C945.13,183.189,1059.13,297.189,1060.93,438.35z M1039.02,434.069h13.08
				c-4.02-132.98-110.88-239.84-243.85-243.86v13.08C933.95,207.409,1034.91,308.359,1039.02,434.069z M1017.15,434.069h13.08
				c-4.11-120.86-101.131-217.88-221.98-221.99v13.08C921.83,229.369,1012.95,320.479,1017.15,434.069z M995.42,434.069h13.07
				c-4.21-108.8-91.45-196.04-200.24-200.25v13.08C909.78,251.209,991.11,332.529,995.42,434.069z M973.55,434.069h13.08
				c-4.29-96.69-81.7-174.09-178.38-178.38v13.08C897.66,273.149,969.17,344.649,973.55,434.069z M951.8,434.069h13.07
				c-4.38-84.63-72-152.25-156.62-156.63v13.09C885.6,294.989,947.33,356.709,951.8,434.069z"/>
			<path fill="#6E7A74" d="M1052.32,246.649c2.41,0,4.359,1.95,4.359,4.359c0,2.41-1.949,4.36-4.359,4.36
				c-7.221,0-13.07,5.85-13.07,13.07c0,2.41-1.95,4.359-4.36,4.359c-2.409,0-4.359-1.949-4.359-4.359
				c0-7.221-5.851-13.07-13.08-13.07c-2.4,0-4.351-1.95-4.351-4.36c0-2.409,1.95-4.359,4.351-4.359c7.229,0,13.08-5.851,13.08-13.07
				c0-2.41,1.95-4.36,4.359-4.36c2.41,0,4.36,1.95,4.36,4.36C1039.25,240.799,1045.1,246.649,1052.32,246.649z M1039.38,251.009
				c-1.71-1.27-3.22-2.779-4.49-4.489c-1.27,1.71-2.79,3.22-4.5,4.489c1.71,1.271,3.23,2.78,4.5,4.49
				C1036.16,253.789,1037.67,252.279,1039.38,251.009z"/>
			<path fill="#BD8EAA" d="M1052.1,434.069h-13.08c-4.109-125.71-105.069-226.66-230.77-230.78v-13.08
				C941.22,194.229,1048.08,301.089,1052.1,434.069z"/>
			<rect x="1034.89" y="290.239" fill="#6E7A74" width="8.721" height="8.71"/>
			<path fill="#CAB5A4" d="M1034.89,246.52c1.271,1.71,2.78,3.22,4.49,4.489c-1.71,1.271-3.22,2.78-4.49,4.49
				c-1.27-1.71-2.79-3.22-4.5-4.49C1032.1,249.739,1033.62,248.229,1034.89,246.52z"/>
			<path fill="#BDA38E" d="M1030.23,434.069h-13.08c-4.2-113.59-95.32-204.7-208.9-208.91v-13.08
				C929.1,216.189,1026.12,313.209,1030.23,434.069z"/>
			<path fill="#6E7A74" d="M1013.1,207.419c2.4,0,4.351,1.96,4.351,4.36c0,2.41-1.95,4.36-4.351,4.36
				c-9.63,0-17.439,7.81-17.439,17.439c0,2.4-1.95,4.35-4.36,4.35c-2.399,0-4.35-1.949-4.35-4.35c0-9.63-7.811-17.439-17.44-17.439
				c-2.41,0-4.359-1.95-4.359-4.36c0-2.4,1.949-4.36,4.359-4.36c9.63,0,17.44-7.8,17.44-17.43c0-2.41,1.95-4.36,4.35-4.36
				c2.41,0,4.36,1.95,4.36,4.36C995.66,199.619,1003.47,207.419,1013.1,207.419z M998.67,211.779c-2.92-1.94-5.43-4.44-7.37-7.36
				c-1.939,2.92-4.439,5.42-7.359,7.36c2.92,1.939,5.42,4.45,7.359,7.37C993.24,216.229,995.75,213.719,998.67,211.779z"/>
			<path fill="#BDBC97" d="M1008.49,434.069h-13.07c-4.31-101.54-85.64-182.86-187.17-187.17v-13.08
				C917.04,238.029,1004.28,325.27,1008.49,434.069z"/>
			<path fill="#E4DAD2" d="M991.3,204.419c1.94,2.92,4.45,5.42,7.37,7.36c-2.92,1.939-5.43,4.45-7.37,7.37
				c-1.939-2.92-4.439-5.431-7.359-7.37C986.86,209.839,989.36,207.339,991.3,204.419z"/>
			<path fill="#93A39B" d="M986.63,434.069h-13.08c-4.38-89.42-75.89-160.92-165.3-165.3v-13.08
				C904.93,259.979,982.34,337.379,986.63,434.069z"/>
			<path fill="#9997BD" d="M964.87,434.069H951.8c-4.47-77.36-66.2-139.08-143.55-143.54v-13.09
				C892.87,281.819,960.49,349.439,964.87,434.069z"/>
			<rect x="930.28" y="189.989" fill="#6E7A74" width="8.72" height="8.72"/>
			<rect x="908.49" y="412.279" fill="#6E7A74" width="8.72" height="8.71"/>
			<path fill="#6E7A74" d="M904.13,381.77c2.41,0,4.36,1.949,4.36,4.359c0,2.4-1.95,4.351-4.36,4.351
				c-9.63,0-17.43,7.81-17.43,17.439c0,2.41-1.95,4.36-4.36,4.36s-4.359-1.95-4.359-4.36c0-9.63-7.801-17.439-17.431-17.439
				c-2.41,0-4.359-1.95-4.359-4.351c0-2.41,1.949-4.359,4.359-4.359c9.63,0,17.431-7.811,17.431-17.44c0-2.41,1.949-4.36,4.359-4.36
				s4.36,1.95,4.36,4.36C886.7,373.959,894.5,381.77,904.13,381.77z M889.71,386.129c-2.92-1.95-5.43-4.45-7.37-7.37
				c-1.939,2.92-4.45,5.42-7.37,7.37c2.92,1.931,5.431,4.44,7.37,7.36C884.28,390.569,886.79,388.06,889.71,386.129z"/>
			<path fill="#BDBC97" d="M882.34,378.759c1.94,2.92,4.45,5.42,7.37,7.37c-2.92,1.931-5.43,4.44-7.37,7.36
				c-1.939-2.92-4.45-5.43-7.37-7.36C877.89,384.179,880.4,381.679,882.34,378.759z"/>
			<rect x="843.11" y="351.259" fill="#6E7A74" width="8.72" height="8.71"/>
		</g>
		<g>
		</g>
	</g>
</g>
<g>
	<path d="M215.967,78.372c20.248-25.396,17.893-63.349,17.893-63.349s-1.355-0.083-3.726-0.083
		c-10.174,0-39.024,1.591-59.624,18.026C160.817,17.95,143.977,8,124.797,8c-0.048,0-0.104,0-0.152,0
		c-19.051,0.052-35.761,9.909-45.438,24.752c-20.579-16.231-49.213-17.812-59.34-17.812c-2.368,0-3.725,0.083-3.725,0.083
		S13.77,53.24,34.25,78.639C18.507,88.199,7.964,105.472,8,125.244c0.034,18.983,9.805,35.66,24.57,45.368
		c-21.64,25.371-19.201,64.904-19.201,64.904s1.355,0.083,3.726,0.083c10.502,0,40.898-1.693,61.582-19.661
		C88.247,231.551,105.419,242,125.055,242c0.026,0,0.055,0,0.055,0c19.606-0.018,36.729-10.436,46.292-25.992
		c20.684,17.902,51.018,19.591,61.504,19.591c2.369,0,3.726-0.083,3.726-0.083s2.446-39.63-19.276-64.995
		C232.183,160.802,242,144.061,242,125c0-0.025,0-0.025,0-0.055c0-0.136,0-0.271,0-0.437
		C241.929,104.959,231.498,87.906,215.967,78.372z M220.319,28.561c-1.146,12.407-4.932,31.208-16.816,44.13
		c-5.045-1.544-10.393-2.382-15.937-2.382c-0.064,0-0.136,0-0.202,0c-3.021,0.029-5.959,0.273-8.818,0.762
		c0.464-2.884,0.683-5.821,0.683-8.817c-0.021-5.969-1.038-11.691-2.829-17.059C189.34,33.436,208.094,29.694,220.319,28.561z
		 M29.682,28.561c12.131,1.126,30.701,4.815,43.631,16.364c-1.883,5.546-2.946,11.472-2.923,17.654c0,2.996,0.247,5.959,0.736,8.817
		c-2.717-0.439-5.53-0.681-8.375-0.681c-0.148,0-0.294,0-0.442,0.002c-5.392,0.01-10.587,0.832-15.503,2.301
		C34.673,60.086,30.833,41.067,29.682,28.561z M72.428,203.863c-12.951,12.95-32.787,16.933-45.516,18.116
		c1.181-12.805,5.156-32.434,17.969-45.369c5.512,1.878,11.401,2.945,17.55,2.945c0.031,0,0.067,0,0.099,0
		c2.993-0.026,5.959-0.271,8.817-0.732c-0.463,2.856-0.708,5.82-0.708,8.812c0.005,5.445,0.833,10.695,2.327,15.653
		C72.779,203.476,72.615,203.676,72.428,203.863z M223.091,221.977c-12.73-1.181-32.567-5.163-45.52-18.116
		c-0.152-0.153-0.288-0.317-0.439-0.474c1.521-5.023,2.352-10.345,2.341-15.865c0-2.992-0.244-5.956-0.708-8.812
		c2.859,0.462,5.824,0.706,8.818,0.706c6.108,0,11.961-1.053,17.445-2.909C217.922,189.444,221.907,209.149,223.091,221.977z
		 M228.855,125c0,22.758-18.515,41.272-41.272,41.272c-2.252,0-4.512-0.183-6.716-0.538l-17.989-2.912l2.911,17.989
		c0.359,2.21,0.538,4.47,0.538,6.737c0.021,11.013-4.26,21.377-12.047,29.183c-7.792,7.808-18.154,12.112-29.226,12.12
		c-22.737,0-41.251-18.496-41.272-41.221c0-2.248,0.182-4.508,0.538-6.713l2.913-17.989l-17.99,2.912
		c-2.189,0.353-4.487,0.543-6.814,0.563c-22.722,0-41.241-18.474-41.283-41.186c-0.021-11.029,4.253-21.405,12.038-29.216
		c7.779-7.81,18.132-12.121,29.245-12.142l0.325-0.003c2.06,0,4.168,0.171,6.273,0.513l18.162,2.94l-3.105-18.135
		c-0.361-2.119-0.546-4.336-0.546-6.646c-0.039-11.016,4.218-21.39,11.992-29.208c7.774-7.823,18.129-12.147,29.151-12.179h0.119
		c22.683,0,41.203,18.463,41.283,41.109c0,2.34-0.174,4.607-0.514,6.734l-2.91,18.138l18.107-3.1
		c2.095-0.358,4.356-0.551,6.647-0.574h0.15c22.686,0,41.208,18.439,41.288,41.054V125H228.855z"/>
	<path d="M125,80.105c-24.796,0-44.895,20.101-44.895,44.895c0,24.797,20.101,44.895,44.895,44.895
		c24.794,0,44.895-20.098,44.895-44.895C169.895,100.207,149.797,80.105,125,80.105z M125,156.748
		c-17.505,0-31.749-14.242-31.749-31.748c0-17.505,14.243-31.749,31.749-31.749c17.506,0,31.748,14.243,31.748,31.749
		C156.748,142.506,142.506,156.748,125,156.748z"/>
</g>
</svg>
